<svg xmlns="http://www.w3.org/2000/svg" xmlns:xlink="http://www.w3.org/1999/xlink" id="visual" version="1.1" viewBox="0 0 900 352"><path d="M0 352L25 351.7C50 351.3 100 350.7 150 323C200 295.3 250 240.7 300 232.7C350 224.7 400 263.3 450 277.7C500 292 550 282 600 252.8C650 223.7 700 175.3 750 152.8C800 130.3 850 133.7 875 135.3L900 137L900 0L875 0C850 0 800 0 750 0C700 0 650 0 600 0C550 0 500 0 450 0C400 0 350 0 300 0C250 0 200 0 150 0C100 0 50 0 25 0L0 0Z" fill="#2DA25E" stroke-linecap="round" stroke-linejoin="miter"/></svg>